<svg id="visual" viewBox="0 0 900 600" width="900" height="600" xmlns="http://www.w3.org/2000/svg" xmlns:xlink="http://www.w3.org/1999/xlink" version="1.1"><rect x="0" y="0" width="900" height="600" fill="#001220"></rect><path d="M0 423L21.5 421.8C43 420.7 86 418.3 128.8 412.3C171.7 406.3 214.3 396.7 257.2 386.7C300 376.7 343 366.3 385.8 375.8C428.7 385.3 471.3 414.7 514.2 413.5C557 412.3 600 380.7 642.8 366.3C685.7 352 728.3 355 771.2 366C814 377 857 396 878.5 405.5L900 415L900 601L878.5 601C857 601 814 601 771.2 601C728.3 601 685.7 601 642.8 601C600 601 557 601 514.2 601C471.3 601 428.7 601 385.8 601C343 601 300 601 257.2 601C214.3 601 171.7 601 128.8 601C86 601 43 601 21.5 601L0 601Z" fill="#4b1d19"></path><path d="M0 426L21.5 434.2C43 442.3 86 458.7 128.8 454.7C171.7 450.7 214.3 426.3 257.2 418.8C300 411.3 343 420.7 385.8 428.7C428.7 436.7 471.3 443.3 514.2 439.7C557 436 600 422 642.8 416.3C685.7 410.7 728.3 413.3 771.2 419.2C814 425 857 434 878.5 438.5L900 443L900 601L878.5 601C857 601 814 601 771.2 601C728.3 601 685.7 601 642.8 601C600 601 557 601 514.2 601C471.3 601 428.7 601 385.8 601C343 601 300 601 257.2 601C214.3 601 171.7 601 128.8 601C86 601 43 601 21.5 601L0 601Z" fill="#5d241f"></path><path d="M0 448L21.5 457.2C43 466.3 86 484.7 128.8 486.5C171.7 488.3 214.3 473.7 257.2 472.7C300 471.7 343 484.3 385.8 485.5C428.7 486.7 471.3 476.3 514.2 468C557 459.7 600 453.3 642.8 458C685.7 462.7 728.3 478.3 771.2 487.7C814 497 857 500 878.5 501.5L900 503L900 601L878.5 601C857 601 814 601 771.2 601C728.3 601 685.7 601 642.8 601C600 601 557 601 514.2 601C471.3 601 428.7 601 385.8 601C343 601 300 601 257.2 601C214.3 601 171.7 601 128.8 601C86 601 43 601 21.5 601L0 601Z" fill="#6f2b24"></path><path d="M0 537L21.5 528.3C43 519.7 86 502.3 128.8 496.3C171.7 490.3 214.3 495.7 257.2 503C300 510.3 343 519.7 385.8 521C428.7 522.3 471.3 515.7 514.2 513C557 510.3 600 511.7 642.8 514.3C685.7 517 728.3 521 771.2 523.7C814 526.3 857 527.7 878.5 528.3L900 529L900 601L878.5 601C857 601 814 601 771.2 601C728.3 601 685.7 601 642.8 601C600 601 557 601 514.2 601C471.3 601 428.7 601 385.8 601C343 601 300 601 257.2 601C214.3 601 171.7 601 128.8 601C86 601 43 601 21.5 601L0 601Z" fill="#81322a"></path><path d="M0 529L21.5 528.5C43 528 86 527 128.8 527.7C171.7 528.3 214.3 530.7 257.2 538.2C300 545.7 343 558.3 385.8 564.2C428.7 570 471.3 569 514.2 563.8C557 558.7 600 549.3 642.8 545.2C685.7 541 728.3 542 771.2 542.2C814 542.3 857 541.7 878.5 541.3L900 541L900 601L878.5 601C857 601 814 601 771.2 601C728.3 601 685.7 601 642.8 601C600 601 557 601 514.2 601C471.3 601 428.7 601 385.8 601C343 601 300 601 257.2 601C214.3 601 171.7 601 128.8 601C86 601 43 601 21.5 601L0 601Z" fill="#943930"></path></svg>